<svg xmlns="http://www.w3.org/2000/svg" xmlns:xlink="http://www.w3.org/1999/xlink" version="1.1" x="0px" y="0px" viewBox="0 0 100 100" style="enable-background:new 0 0 100 100;" xml:space="preserve"><path d="M90.8,44.601L80,36.5V14c0-3.309-2.691-6-6-6H26c-3.309,0-6,2.691-6,6v22.5l-10.8,8.1C8.422,45.183,8,46.164,8,47v36  c0,4.963,4.037,9,9,9h66c4.963,0,9-4.037,9-9V47C92,46.189,91.585,45.188,90.8,44.601z M14,83V52.726L36.062,68L14.049,83.24  C14.042,83.157,14,83.085,14,83z M50,65.649L79.396,86H20.605L50,65.649z M63.938,68L86,52.726V83c0,0.085-0.042,0.157-0.049,0.24  L63.938,68z M83.87,46.902L80,49.581V44L83.87,46.902z M74,14v39.735L58.666,64.351l-6.958-4.817c-1.028-0.712-2.388-0.712-3.416,0  l-6.959,4.818L26,53.735V14H74z M20,49.581l-3.87-2.679L20,44V49.581z"/><path d="M39.5,53c4.135,0,7.5-3.365,7.5-7.5V28.602l15-2.143v8.693C61.515,35.053,61.014,35,60.5,35c-4.135,0-7.5,3.365-7.5,7.5  s3.365,7.5,7.5,7.5s7.5-3.365,7.5-7.5V23c0-0.87-0.378-1.696-1.034-2.266s-1.522-0.832-2.391-0.703l-21,3  C42.097,23.242,41,24.507,41,26v12.152C40.515,38.053,40.014,38,39.5,38c-4.135,0-7.5,3.365-7.5,7.5S35.365,53,39.5,53z M60.5,44  c-0.828,0-1.5-0.672-1.5-1.5s0.672-1.5,1.5-1.5s1.5,0.672,1.5,1.5S61.328,44,60.5,44z M39.5,44c0.828,0,1.5,0.672,1.5,1.5  S40.328,47,39.5,47S38,46.328,38,45.5S38.672,44,39.5,44z"/></svg>